# Blender v2.77 (sub 0) OBJ File: ''
# www.blender.org
o Plane
v 0.092807 0.545160 0.265059
v 0.092807 -0.035104 0.265059
v 0.085384 0.545160 -0.252401
v 0.085384 -0.035104 -0.252401
v 0.092807 0.545160 0.265059
v 0.085384 0.545160 -0.252401
v 0.121104 2.482585 0.314070
v 0.113680 2.482585 -0.301413
v 0.070186 3.562175 0.225878
v 0.062763 3.562175 -0.213221
v 0.028148 6.309029 0.153067
v 0.020725 6.309029 -0.140410
v 0.028148 6.309029 0.153067
v 0.020725 6.309029 -0.140410
v -0.053979 8.453115 0.010819
v -0.050540 8.453115 0.016775
v -0.111942 8.197512 -0.031285
v -0.111942 -0.035104 -0.004551
v -0.111942 0.545160 -0.006435
v -0.111942 2.482585 -0.012726
v -0.111942 0.545160 -0.006435
v -0.111942 3.562175 -0.016233
v -0.111942 6.309029 -0.025153
v -0.111942 6.309029 -0.025153
v -0.111942 0.545160 -0.006435
v -0.111942 0.545160 -0.006435
v 0.092807 0.545160 0.265059
v -0.111942 -0.035104 -0.004551
v 0.085384 0.545160 -0.252401
v -0.111942 0.545160 -0.006435
v -0.111942 0.545160 -0.006435
v 0.092807 0.545160 0.265059
v 0.085384 0.545160 -0.252401
v -0.111942 2.482585 -0.012726
v -0.111942 2.482585 -0.012726
v -0.111942 2.482585 -0.012726
v 0.121104 2.482585 0.314070
v 0.113680 2.482585 -0.301413
v -0.111942 3.562175 -0.016233
v -0.111942 3.562175 -0.016233
v -0.111942 3.562175 -0.016233
v 0.070186 3.562175 0.225878
v 0.062763 3.562175 -0.213221
v -0.111942 6.309029 -0.025153
v -0.111942 6.309029 -0.025153
v 0.028148 6.309029 0.153067
v 0.020725 6.309029 -0.140410
v -0.111942 6.309029 -0.025153
v -0.111942 6.309029 -0.025153
v 0.028148 6.309029 0.153067
v 0.020725 6.309029 -0.140410
v -0.111942 8.197512 -0.031285
vt 0.9319 0.9070
vt 1.0000 0.9468
vt 0.9316 0.9465
vt 0.9316 0.9465
vt 0.9308 0.9841
vt 0.9310 0.9465
vt 0.9312 0.9070
vt 0.7030 0.9457
vt 0.7034 0.8985
vt 0.7030 0.9457
vt 0.5762 0.9093
vt 0.7034 0.8985
vt 0.5759 0.9449
vt 0.2530 0.9164
vt 0.5762 0.9093
vt 0.2530 0.9164
vt 0.2528 0.9419
vt 0.2526 0.9164
vt 0.2523 0.9419
vt 0.0000 0.9314
vt 0.0004 0.9307
vt 0.7030 0.9457
vt 0.9308 0.9841
vt 0.7026 0.9888
vt 0.0300 0.9394
vt 0.2523 0.9419
vt 0.2520 0.9634
vt 0.7030 0.9457
vt 0.5757 0.9759
vt 0.5759 0.9449
vt 0.9316 0.9465
vt 0.9999 0.9842
vt 0.9315 0.9841
vt 0.5759 0.9449
vt 0.2524 0.9634
vt 0.2528 0.9419
vt 1.0000 0.9070
vt 0.9312 0.9070
vt 0.9319 0.9070
vt 0.9315 0.9841
vt 0.9310 0.9465
vt 0.5759 0.9449
vt 0.2528 0.9419
vt 0.2524 0.9634
vt 0.2520 0.9634
vt 0.2523 0.9419
vt 0.2526 0.9164
vt 0.0300 0.9394
vt 0.9310 0.9465
vt 0.7026 0.9888
vt 1.0000 0.9468
vt 0.5757 0.9759
vn 0.7984 -0.0020 -0.6021
vn 0.0000 0.0000 1.0000
vn 0.8142 0.0028 -0.5806
vn 0.8141 -0.0090 -0.5806
vn 0.7991 -0.0037 -0.6011
vn -0.8659 0.0150 0.4999
vn 0.7879 0.0041 0.6158
vn 0.6558 0.0025 0.7549
vn 0.7482 0.0022 0.6635
vn 0.7800 0.0000 0.6258
vn 0.7964 0.0000 -0.6048
vn 0.7991 -0.0020 -0.6011
vn 0.7862 -0.0020 -0.6180
vn 0.0000 1.0000 -0.0000
vn 0.0000 -1.0000 0.0000
vn 0.7861 -0.0109 -0.6179
vn 0.6229 -0.0025 -0.7823
vn 0.7800 0.0020 0.6258
vn 0.7878 -0.0131 0.6157
vn 0.7823 0.0020 0.6229
vn 0.7481 -0.0061 0.6635
s off
f 27/1/1 18/2/1 25/3/1
f 26/4/2 33/5/2 30/6/2
f 5/7/3 34/8/3 37/9/3
f 36/10/4 42/11/4 7/12/4
f 41/13/5 46/14/5 9/15/5
f 11/16/2 45/17/2 50/18/2
f 49/19/6 16/20/6 15/21/6
f 35/22/7 6/23/7 38/24/7
f 17/25/8 24/26/8 14/27/8
f 20/28/9 43/29/9 40/30/9
f 21/31/10 4/32/10 29/33/10
f 22/34/8 47/35/8 23/36/8
f 27/1/11 2/37/11 18/2/11
f 32/38/2 1/39/2 26/4/2
f 26/4/2 3/40/2 33/5/2
f 30/6/2 32/38/2 26/4/2
f 5/7/1 31/41/1 34/8/1
f 36/10/12 39/42/12 42/11/12
f 41/13/13 44/43/13 46/14/13
f 45/17/2 12/44/2 51/45/2
f 51/45/14 48/46/14 50/18/14
f 45/17/15 51/45/15 50/18/15
f 15/21/16 13/47/16 49/19/16
f 49/19/17 52/48/17 16/20/17
f 35/22/18 19/49/18 6/23/18
f 20/28/19 8/50/19 43/29/19
f 21/31/20 28/51/20 4/32/20
f 22/34/21 10/52/21 47/35/21
